<?xml version="1.0" encoding="UTF-8"?>
<!DOCTYPE svg PUBLIC "-//W3C//DTD SVG 1.1//EN" "http://www.w3.org/Graphics/SVG/1.1/DTD/svg11.dtd">
<svg version="1.1" xmlns="http://www.w3.org/2000/svg" xmlns:xlink="http://www.w3.org/1999/xlink" x="0" y="0" width="100" height="100" viewBox="0, 0, 100, 100">
  <g id="Layer_1">
    <path d="M91.994,75.997 C91.994,78.645 91.222,91.853 75.973,91.991 L24.049,91.988 C22.716,91.988 21.172,91.877 19.983,91.396 C25.411,87.815 28.171,83.151 31.224,75.992 L38.499,58.932 L54.325,58.932 C66.289,58.932 74.195,52.669 74.195,41.615 C74.195,30.859 66.369,25.249 54.476,25.249 L52.864,25.249 L53.395,24.005 C54.53,21.36 60.835,8.153 75.995,8.009 C78.646,7.985 91.856,8.781 91.994,24.03 z M49.232,33.767 L55.242,33.767 C60.536,33.767 64.165,36.503 64.165,41.615 C64.165,47.084 60.536,50.419 55.242,50.419 L42.13,50.419 z M13.137,84.365 C10.283,84.365 8.012,82.552 8.012,75.995 L8.012,24.008 C8.012,21.36 8.784,8.15 24.027,8.012 L55.484,8.012 C51.344,11.68 47.454,16.847 44.401,24.005 L22.49,75.368 C20.394,80.283 16.839,84.365 13.137,84.365 M75.995,0.01 L23.977,0.013 C15.077,0.087 0.01,5.221 0.01,24.008 L0.01,76.028 C0.087,84.928 5.218,99.99 24.005,99.99 L76.023,99.99 C84.923,99.916 99.99,94.782 99.99,75.997 L99.99,23.981 C99.918,15.077 94.777,0.01 75.995,0.01" fill="#000000"/>
  </g>
</svg>
