<svg width="240" height="81" viewBox="0 0 240 81" fill="none" xmlns="http://www.w3.org/2000/svg">
<path d="M49.8264 32.0866V48.9437C49.8264 50.1046 50.6697 50.9412 51.8375 50.9412C53.0357 50.9412 53.879 50.1046 53.879 48.9437V43.9154H57.1542C62.2124 43.9154 65.5518 41.177 65.5518 37.0174C65.5518 32.893 62.2428 30.1848 57.2184 30.1848H51.7057C50.6055 30.1848 49.8264 30.9593 49.8264 32.0866ZM53.8469 33.7632H57.5429C59.7805 33.7632 61.2711 35.0534 61.2711 37.0174C61.2711 39.0166 59.7805 40.3387 57.5429 40.3387H53.8469V33.7632ZM86.7444 47.9122L80.3241 32.6662C79.5467 30.798 78.7372 30.0571 77.0827 30.0571C75.4299 30.0571 74.6187 30.798 73.8396 32.6662L67.3872 47.976C66.6757 49.6846 67.3872 50.9412 68.8811 50.9412C70.1436 50.9731 70.6962 50.2961 71.215 48.9756L72.1428 46.7093H81.7927L82.6918 48.9437C83.2106 50.2961 84.0218 50.9731 85.1879 50.9412C86.7123 50.9412 87.4914 49.6846 86.7444 47.9122ZM80.3359 43.1309H73.5759L76.9543 34.7628L80.3359 43.1309ZM105.578 32.9887L98.9327 43.9793V48.9437C98.9327 50.1046 98.0894 50.9412 96.9216 50.9412C95.7217 50.9412 94.8784 50.1046 94.8784 48.9437V43.9793L88.3955 33.2155C87.4221 31.6044 88.3296 30.0571 89.9841 30.0571C91.1181 30.0571 91.637 30.7661 92.0899 31.5708L96.9875 39.791L101.752 31.764C102.402 30.7325 102.953 30.0571 104.087 30.0571C105.772 30.0571 106.455 31.6044 105.578 32.9887ZM137.15 51.2486C131.218 51.2486 126.387 46.4136 126.387 40.5151C126.387 34.5545 131.218 29.7497 137.15 29.7497C143.082 29.7497 147.916 34.5847 147.916 40.547C147.916 46.4455 143.082 51.2486 137.15 51.2486ZM137.15 33.7481C133.617 33.7481 130.732 36.7771 130.732 40.5151C130.732 44.2229 133.617 47.2519 137.15 47.2519C140.718 47.2519 143.603 44.2229 143.603 40.547C143.603 36.809 140.718 33.7481 137.15 33.7481ZM170.925 32.0714V48.4447C170.925 49.9903 170.05 50.9597 168.689 50.9597C167.129 50.9597 166.354 50.1214 165.38 48.7673L156.854 37.0997V48.9286C156.854 50.0878 156.011 50.9244 154.843 50.9244C153.643 50.9244 152.8 50.0878 152.8 48.9286V32.5872C152.8 30.9744 153.707 30.0403 155.167 30.0403C156.562 30.0403 157.339 30.8148 158.248 32.2008L166.872 44.1574V32.0714C166.872 30.9106 167.714 30.0739 168.883 30.0739C170.082 30.0739 170.925 30.9106 170.925 32.0714ZM178.929 30.1714H188.817C189.953 30.1714 190.73 30.9442 190.73 32.0714C190.73 33.2004 189.953 33.9413 188.817 33.9413H181.102V38.5176H187.523C188.656 38.5176 189.434 39.2921 189.434 40.4177C189.434 41.5147 188.656 42.3211 187.523 42.3211H181.102V47.0251H188.817C189.953 47.0251 190.73 47.7996 190.73 48.9605C190.73 50.0558 189.953 50.8286 188.817 50.8286H178.929C177.829 50.8286 177.05 50.0239 177.05 48.9286V32.0714C177.05 30.9442 177.829 30.1714 178.929 30.1714ZM200.448 51.4183C200.448 52.507 200.132 57.9384 193.862 57.967H108.015C109.913 56.2836 111.444 54.103 112.568 51.4822L121.935 29.6455C122.407 28.5502 125.07 23.0834 131.386 23.0314H193.862C194.952 23.0314 200.402 23.3455 200.448 29.58V51.4183ZM98.5406 57.967H45.14C44.0483 57.967 38.5963 57.6511 38.5524 51.4166V29.58C38.5524 28.4964 38.8701 23.0851 45.1518 23.0314H122.218C120.426 24.703 118.947 26.8836 117.82 29.5128L108.449 51.3511C107.663 53.1806 104.351 57.9401 98.5406 57.967ZM203.998 29.5666C203.971 25.8269 201.805 19.5 193.86 19.5H45.1282C41.3662 19.5302 35 21.689 35 29.58V51.4301C35.027 55.1698 37.1919 61.4983 45.14 61.4983H193.868C197.632 61.4815 204 59.3378 204 51.4166L203.998 29.5666Z" fill="#0096D6"/>
</svg>
